<svg id="图层_1" data-name="图层 1" xmlns="http://www.w3.org/2000/svg" viewBox="0 0 128 128"><defs><style>.cls-1{fill:#03c8ae;}</style></defs><title>progress</title><rect class="cls-1" x="106.16" y="101.12" width="1" height="9.66" rx="0.5" transform="translate(-43.68 106.45) rotate(-45)"/><rect class="cls-1" x="107.49" y="98.26" width="1" height="4" rx="0.5" transform="translate(-38.23 118.53) rotate(-50)"/><rect class="cls-1" x="110.48" y="94.28" width="1" height="4" rx="0.5" transform="translate(-31.55 131.97) rotate(-55)"/><rect class="cls-1" x="113.11" y="90.07" width="1" height="4" rx="0.5" transform="translate(-22.93 144.43) rotate(-60)"/><rect class="cls-1" x="115.37" y="85.64" width="1" height="4" rx="0.5" transform="translate(-12.52 155.61) rotate(-65)"/><rect class="cls-1" x="117.23" y="81.03" width="1" height="4" rx="0.5" transform="matrix(0.34, -0.94, 0.94, 0.34, -0.55, 165.26)"/><rect class="cls-1" x="118.69" y="76.27" width="1" height="4" rx="0.5" transform="translate(12.74 173.14) rotate(-75)"/><rect class="cls-1" x="119.72" y="71.41" width="1" height="4" rx="0.5" transform="translate(27.05 179.05) rotate(-80)"/><rect class="cls-1" x="120.33" y="66.47" width="1" height="4" rx="0.5" transform="translate(42.09 182.87) rotate(-85)"/><rect class="cls-1" x="122.5" y="59.5" width="1" height="8" rx="0.5" transform="translate(59.5 186.5) rotate(-90)"/><rect class="cls-1" x="120.24" y="56.53" width="1" height="4" rx="0.5" transform="translate(72.95 183.92) rotate(-95)"/><rect class="cls-1" x="119.55" y="51.61" width="1" height="4" rx="0.5" transform="translate(88.1 181.14) rotate(-100)"/><rect class="cls-1" x="118.43" y="46.76" width="1" height="4" rx="0.5" transform="translate(102.61 176.26) rotate(-105)"/><rect class="cls-1" x="116.89" y="42.04" width="1" height="4" rx="0.5" transform="translate(116.16 169.41) rotate(-110)"/><rect class="cls-1" x="114.95" y="37.46" width="1" height="4" rx="0.5" transform="translate(128.48 160.76) rotate(-115)"/><rect class="cls-1" x="112.61" y="33.07" width="1" height="4" rx="0.5" transform="translate(139.3 150.56) rotate(-120)"/><rect class="cls-1" x="109.9" y="28.9" width="1" height="4" rx="0.5" transform="translate(148.42 139.06) rotate(-125)"/><rect class="cls-1" x="106.84" y="24.98" width="1" height="4" rx="0.5" transform="translate(155.68 126.55) rotate(-130)"/><rect class="cls-1" x="101.12" y="20.84" width="9.66" height="1" rx="0.5" transform="translate(15.94 81.17) rotate(-45)"/><rect class="cls-1" x="99.76" y="18.01" width="1" height="4" rx="0.5" transform="translate(164.19 99.79) rotate(-140)"/><rect class="cls-1" x="95.78" y="15.02" width="1" height="4" rx="0.5" transform="translate(165.39 86.19) rotate(-145)"/><rect class="cls-1" x="91.57" y="12.39" width="1" height="4" rx="0.5" transform="translate(164.61 72.88) rotate(-150)"/><rect class="cls-1" x="87.14" y="10.13" width="1" height="4" rx="0.5" transform="translate(161.94 60.16) rotate(-155)"/><rect class="cls-1" x="82.53" y="8.27" width="1" height="4" rx="0.5" transform="translate(157.53 48.31) rotate(-160)"/><rect class="cls-1" x="77.77" y="6.81" width="1" height="4" rx="0.5" transform="matrix(-0.97, -0.26, 0.26, -0.97, 151.59, 37.58)"/><rect class="cls-1" x="72.91" y="5.78" width="1" height="4" rx="0.5" transform="translate(144.35 28.19) rotate(-170)"/><rect class="cls-1" x="67.97" y="5.17" width="1" height="4" rx="0.5" transform="translate(136.05 20.29) rotate(-175)"/><rect class="cls-1" x="63" y="1" width="1" height="8" rx="0.5" transform="translate(127 10) rotate(180)"/><rect class="cls-1" x="58.03" y="5.26" width="1" height="4" rx="0.5" transform="translate(117.48 9.39) rotate(175)"/><rect class="cls-1" x="53.11" y="5.95" width="1" height="4" rx="0.5" transform="translate(107.79 6.48) rotate(170)"/><rect class="cls-1" x="48.26" y="7.07" width="1" height="4" rx="0.5" transform="translate(98.22 5.21) rotate(165)"/><rect class="cls-1" x="43.54" y="8.61" width="1" height="4" rx="0.5" transform="translate(89.04 5.52) rotate(160)"/><rect class="cls-1" x="38.96" y="10.55" width="1" height="4" rx="0.5" transform="translate(80.52 7.25) rotate(155)"/><rect class="cls-1" x="34.57" y="12.89" width="1" height="4" rx="0.5" transform="translate(72.88 10.25) rotate(150)"/><rect class="cls-1" x="30.4" y="15.6" width="1" height="4" rx="0.5" transform="translate(66.3 14.29) rotate(145)"/><rect class="cls-1" x="26.48" y="18.66" width="1" height="4" rx="0.5" transform="translate(60.92 19.14) rotate(140)"/><rect class="cls-1" x="20.84" y="17.22" width="1" height="9.66" rx="0.5" transform="translate(-9.34 21.55) rotate(-45)"/><rect class="cls-1" x="19.51" y="25.74" width="1" height="4" rx="0.5" transform="translate(54.13 30.25) rotate(130)"/><rect class="cls-1" x="16.52" y="29.72" width="1" height="4" rx="0.5" transform="translate(52.76 35.96) rotate(125)"/><rect class="cls-1" x="13.89" y="33.93" width="1" height="4" rx="0.5" transform="translate(52.7 41.44) rotate(120)"/><rect class="cls-1" x="11.63" y="38.36" width="1" height="4" rx="0.5" transform="translate(53.84 46.43) rotate(115)"/><rect class="cls-1" x="9.77" y="42.97" width="1" height="4" rx="0.5" transform="translate(56.04 50.71) rotate(110)"/><rect class="cls-1" x="8.31" y="47.73" width="1" height="4" rx="0.5" transform="translate(59.13 54.09) rotate(105)"/><rect class="cls-1" x="7.28" y="52.59" width="1" height="4" rx="0.5" transform="translate(62.9 56.41) rotate(100)"/><rect class="cls-1" x="6.67" y="57.53" width="1" height="4" rx="0.5" transform="translate(67.1 57.57) rotate(95)"/><rect class="cls-1" x="4.5" y="60.5" width="1" height="8" rx="0.5" transform="translate(69.5 59.5) rotate(90)"/><rect class="cls-1" x="6.76" y="67.47" width="1" height="4" rx="0.5" transform="translate(75.83 56.18) rotate(85)"/><rect class="cls-1" x="7.45" y="72.39" width="1" height="4" rx="0.5" transform="translate(79.83 53.64) rotate(80)"/><rect class="cls-1" x="8.57" y="77.24" width="1" height="4" rx="0.5" transform="matrix(0.26, 0.97, -0.97, 0.26, 83.26, 49.97)"/><rect class="cls-1" x="10.11" y="81.96" width="1" height="4" rx="0.5" transform="translate(85.88 45.28) rotate(70)"/><rect class="cls-1" x="12.05" y="86.54" width="1" height="4" rx="0.5" transform="translate(87.49 39.75) rotate(65)"/><rect class="cls-1" x="14.39" y="90.93" width="1" height="4" rx="0.5" transform="translate(87.93 33.57) rotate(60)"/><rect class="cls-1" x="17.1" y="95.1" width="1" height="4" rx="0.5" transform="translate(87.05 26.99) rotate(55)"/><rect class="cls-1" x="20.16" y="99.02" width="1" height="4" rx="0.5" transform="translate(84.77 20.26) rotate(50)"/><rect class="cls-1" x="17.22" y="106.16" width="9.66" height="1" rx="0.5" transform="translate(-68.96 46.83) rotate(-45)"/></svg>